<?xml version="1.0" standalone="no"?>
<!DOCTYPE svg PUBLIC "-//W3C//DTD SVG 20010904//EN"
 "http://www.w3.org/TR/2001/REC-SVG-20010904/DTD/svg10.dtd">
<svg version="1.0" xmlns="http://www.w3.org/2000/svg"
 width="563.000000pt" height="633.000000pt" viewBox="0 0 563.000000 633.000000"
 preserveAspectRatio="xMidYMid meet">

<g transform="translate(0.000000,633.000000) scale(0.100000,-0.100000)"
fill="#000000" stroke="none">
<path d="M3285 6077 c-39 -24 -105 -63 -147 -87 -43 -24 -78 -49 -78 -56 0 -7
15 -21 33 -32 l33 -19 65 37 c35 20 88 49 116 65 l53 28 114 -67 c63 -36 119
-66 123 -66 16 0 83 51 78 59 -7 12 -304 181 -317 181 -2 0 -35 -19 -73 -43z"/>
<path d="M2016 5993 c-6 -14 -5 -15 5 -6 7 7 10 15 7 18 -3 3 -9 -2 -12 -12z"/>
<path d="M2070 6000 c17 -11 20 -39 5 -60 -5 -8 -5 -12 -1 -8 5 4 15 3 23 -3
9 -9 13 -8 13 0 0 6 -5 11 -12 11 -6 0 -9 3 -5 6 3 3 13 2 22 -3 15 -9 15 -11
1 -26 -9 -8 -16 -24 -16 -35 0 -13 -11 -22 -37 -30 -20 -6 -41 -8 -46 -5 -6 4
-7 1 -2 -7 6 -10 4 -12 -9 -7 -10 4 -15 3 -11 -3 3 -5 -3 -14 -14 -19 -26 -14
-34 -14 -25 2 4 7 3 9 -2 4 -5 -5 -9 -13 -9 -18 0 -5 -38 -31 -85 -58 -122
-70 -121 -74 53 -177 131 -79 140 -82 190 -79 48 2 53 0 54 -19 3 -103 6 -116
27 -111 17 5 17 3 -3 -8 l-24 -15 21 -6 c24 -8 45 1 37 15 -3 5 2 6 11 2 13
-5 15 -3 9 7 -5 9 -4 11 4 6 7 -4 57 20 119 56 59 35 167 99 240 143 179 107
181 96 -43 215 -44 23 -104 56 -132 72 -29 16 -58 26 -64 22 -7 -4 -9 -3 -6 2
8 14 -158 98 -178 90 -9 -3 -13 -11 -10 -17 4 -6 -12 -1 -35 11 -23 12 -40 24
-37 27 3 3 16 -2 29 -11 28 -20 50 -21 24 -1 -11 8 -15 15 -9 15 7 0 15 -5 18
-10 4 -6 11 -8 16 -4 15 9 -40 36 -81 40 -23 2 -29 0 -20 -6z m106 -182 c-10
-6 -22 -6 -26 -2 -5 5 3 10 18 11 22 1 24 0 8 -9z m58 4 c2 -4 -4 -8 -14 -8
-10 0 -16 4 -14 8 3 4 9 8 14 8 5 0 11 -4 14 -8z m1 -31 c3 -5 0 -13 -6 -17
-7 -4 -9 -3 -5 4 3 5 0 13 -6 15 -9 4 -10 6 -1 6 6 1 14 -3 18 -8z m0 -231
c-3 -5 -12 -10 -18 -10 -7 0 -6 4 3 10 19 12 23 12 15 0z m-89 -55 c-11 -8
-25 -15 -30 -15 -6 0 -2 7 8 15 11 8 25 15 30 15 6 0 2 -7 -8 -15z"/>
<path d="M2050 5980 c0 -5 5 -10 11 -10 5 0 7 5 4 10 -3 6 -8 10 -11 10 -2 0
-4 -4 -4 -10z"/>
<path d="M3946 5978 c5 -7 2 -9 -7 -6 -11 4 -15 -1 -15 -17 0 -15 5 -21 14
-18 11 5 11 7 0 15 -9 7 -8 8 5 4 10 -3 24 -6 30 -7 7 0 4 -4 -6 -8 -10 -4
-18 -11 -18 -16 0 -6 -8 -18 -16 -27 -20 -22 -11 -23 28 -2 61 31 37 6 -34
-35 -39 -23 -79 -46 -87 -51 -27 -17 -213 -125 -340 -198 -69 -40 -135 -72
-145 -72 -11 0 -42 11 -68 25 -26 14 -53 23 -59 19 -6 -4 -8 -3 -4 4 3 6 -14
22 -41 37 -96 54 -134 76 -324 185 l-194 111 -5 -53 c-9 -89 -4 -95 103 -157
53 -30 97 -58 97 -62 0 -4 -25 -22 -56 -39 -38 -23 -59 -29 -66 -22 -7 7 -74
-28 -217 -115 -113 -69 -249 -152 -302 -184 -53 -32 -108 -63 -123 -69 l-27
-10 3 -379 c1 -209 5 -378 9 -376 3 2 5 -5 4 -16 -2 -24 -62 -85 -98 -98 l-27
-11 0 134 0 133 -51 27 c-28 16 -52 26 -54 24 -3 -3 -8 -343 -5 -391 0 -5 21
4 48 19 26 15 112 64 192 109 80 45 200 113 266 150 l121 69 -3 100 c-1 55 1
107 6 116 5 10 34 30 63 45 l54 29 67 -42 c37 -23 75 -42 84 -41 13 1 13 2 -3
7 -27 9 -135 75 -135 83 0 3 17 14 38 23 76 35 81 43 84 134 2 45 7 82 11 83
8 0 177 -92 302 -166 39 -22 87 -49 107 -60 22 -11 34 -23 29 -28 -5 -5 -21
-2 -37 8 l-29 17 24 -19 24 -20 -44 -24 c-67 -37 -64 -58 18 -106 213 -127
212 -126 252 -113 36 11 40 10 115 -34 42 -25 74 -41 71 -36 -3 5 -31 23 -63
41 -92 52 -91 48 -13 91 l71 39 60 -35 c34 -20 69 -36 78 -36 9 0 -10 13 -43
29 -92 45 -92 45 -51 69 47 28 47 56 0 84 l-36 21 38 23 c66 39 72 47 11 14
-47 -25 -61 -28 -78 -19 -25 13 -51 -4 261 173 124 71 231 135 238 144 7 9 12
44 12 80 0 54 -4 68 -22 83 -20 18 -33 23 -50 20 -5 0 -8 3 -8 8 0 6 -18 20
-40 32 -22 13 -40 25 -40 29 0 3 20 16 45 30 38 21 45 29 45 55 0 27 -7 34
-70 68 -39 21 -70 41 -70 45 0 4 37 27 83 52 118 65 127 75 127 153 0 49 -4
68 -18 80 -22 20 -36 22 -27 5 4 -7 -2 -3 -12 10 -10 13 -25 21 -33 19 -8 -2
-12 -2 -7 0 9 6 -1 23 -14 23 -6 0 -7 -5 -3 -12z m-1180 -147 c27 -16 30 -23
26 -55 -2 -20 -6 -36 -8 -36 -2 0 -19 8 -39 17 -31 15 -35 21 -35 55 0 43 10
47 56 19z m213 -126 c72 -42 137 -73 143 -69 6 4 8 3 5 -3 -3 -5 27 -29 68
-52 70 -40 75 -45 75 -76 0 -19 -4 -36 -9 -39 -5 -3 -103 48 -218 113 l-208
119 -3 41 c-2 22 1 41 6 41 5 0 68 -34 141 -75z m-180 -242 c25 -15 63 -36 84
-48 20 -11 74 -42 120 -69 212 -128 335 -196 350 -196 14 0 133 59 162 80 6 4
45 26 87 49 75 41 78 41 108 26 16 -8 30 -13 30 -11 0 3 -12 12 -26 19 l-26
14 67 37 c52 29 70 34 79 25 8 -9 8 -10 -1 -5 -17 9 -45 -5 -39 -20 3 -9 -2
-14 -14 -14 -10 0 -22 -5 -26 -12 -5 -7 -3 -8 6 -3 10 6 12 4 7 -8 -4 -12 -2
-15 11 -11 31 11 87 39 128 66 30 19 44 24 55 16 11 -8 11 -9 -3 -4 -10 3 -20
1 -23 -4 -3 -5 5 -10 17 -13 21 -3 21 -4 4 -12 -12 -5 -21 -3 -26 6 -5 7 -12
11 -15 7 -3 -3 5 -14 18 -25 23 -18 23 -20 9 -31 -15 -11 -13 -11 8 -6 l25 6
-25 -19 c-26 -21 -165 -103 -419 -247 -135 -78 -158 -88 -190 -83 -20 3 -92
38 -161 78 -69 39 -159 91 -200 114 -179 101 -314 183 -317 191 -2 5 14 18 35
29 34 18 37 24 37 63 0 23 4 42 9 42 5 0 30 -12 55 -27z m91 -7 c-1 -5 4 -12
12 -17 9 -6 6 -8 -10 -6 -23 1 -31 16 -9 18 6 0 3 5 -8 10 -17 7 -17 8 -2 6
10 -1 17 -6 17 -11z m1100 -224 c0 -34 -4 -40 -35 -55 -20 -9 -38 -17 -40 -17
-3 0 -5 16 -5 35 0 29 6 39 33 55 44 27 47 26 47 -18z m-120 -71 l0 -39 -182
-105 c-101 -57 -198 -112 -215 -121 l-33 -17 0 40 0 39 213 121 c116 66 213
121 215 121 1 0 2 -18 2 -39z"/>
<path d="M2118 5463 c6 -2 18 -2 25 0 6 3 1 5 -13 5 -14 0 -19 -2 -12 -5z"/>
<path d="M1480 4733 c0 -307 4 -563 8 -569 4 -6 25 -22 46 -37 43 -29 70 -27
34 3 -19 15 -21 21 -10 32 11 11 12 10 7 -3 -4 -10 -2 -20 3 -23 12 -7 22 335
22 760 l0 343 -43 26 c-24 14 -49 25 -55 25 -9 0 -12 -141 -12 -557z"/>
<path d="M1997 5279 c7 -7 15 -10 18 -7 3 3 -2 9 -12 12 -14 6 -15 5 -6 -5z"/>
<path d="M2075 5274 c-10 -8 -14 -14 -8 -14 7 0 15 5 18 10 4 6 15 8 25 5 10
-3 21 -2 23 2 9 14 -38 11 -58 -3z"/>
<path d="M5194 4994 c-18 -14 -18 -15 4 -4 12 6 22 13 22 15 0 8 -5 6 -26 -11z"/>
<path d="M3737 4966 c-55 -34 -59 -44 -5 -13 l47 27 65 -32 65 -32 40 19 c23
10 46 24 52 31 5 7 -12 0 -40 -14 l-50 -27 -66 33 c-36 17 -66 32 -68 32 -1 0
-19 -11 -40 -24z"/>
<path d="M2970 4949 c-14 -11 -19 -18 -12 -14 57 30 65 35 52 35 -8 0 -26 -10
-40 -21z"/>
<path d="M5135 4959 c-4 -6 -5 -12 -2 -15 2 -3 7 2 10 11 7 17 1 20 -8 4z"/>
<path d="M3030 4956 c0 -3 14 -12 30 -21 17 -9 30 -13 30 -11 0 3 -13 12 -30
21 -16 9 -30 13 -30 11z"/>
<path d="M2914 4914 c-18 -14 -18 -15 4 -4 12 6 22 13 22 15 0 8 -5 6 -26 -11z"/>
<path d="M3935 4799 c-104 -61 -194 -116 -200 -122 -5 -6 1 -4 15 4 14 9 107
62 208 118 100 57 182 105 182 107 0 10 -27 -4 -205 -107z"/>
<path d="M2814 4854 c-18 -14 -18 -15 4 -4 12 6 22 13 22 15 0 8 -5 6 -26 -11z"/>
<path d="M4993 4823 c-46 -26 -83 -52 -83 -58 0 -6 11 -18 25 -25 13 -7 22
-18 18 -23 -3 -6 -1 -7 5 -3 6 3 33 -7 60 -24 35 -21 60 -29 85 -28 19 2 33 6
31 10 -2 3 25 23 61 43 36 20 65 42 65 49 0 7 -18 22 -40 35 -45 25 -47 28
-22 48 13 12 12 12 -9 0 -24 -14 -29 -14 -58 4 -17 10 -37 19 -44 19 -6 0 -49
-21 -94 -47z"/>
<path d="M4834 4844 c-18 -14 -18 -15 4 -4 12 6 22 13 22 15 0 8 -5 6 -26 -11z"/>
<path d="M4890 4856 c0 -3 9 -10 20 -16 11 -6 20 -8 20 -6 0 3 -9 10 -20 16
-11 6 -20 8 -20 6z"/>
<path d="M5430 4710 l-95 -59 -45 25 c-25 14 -36 18 -25 9 59 -49 63 -48 170
16 86 53 102 59 122 50 34 -16 42 -13 13 4 -14 8 -29 14 -35 14 -5 0 -53 -27
-105 -59z"/>
<path d="M3850 4503 c-223 -135 -416 -249 -429 -254 -19 -8 -21 -12 -11 -24
10 -12 10 -15 -1 -15 -9 -1 -8 -5 5 -15 11 -8 15 -15 10 -15 -19 0 -1 -224 22
-279 8 -19 12 -44 9 -55 -5 -17 -4 -18 4 -6 8 11 11 12 11 2 0 -8 5 -10 13 -6
6 4 4 -2 -6 -13 -12 -14 -15 -23 -8 -28 6 -3 11 -11 11 -16 0 -6 -4 -8 -9 -5
-4 3 -6 -6 -3 -20 6 -33 12 -25 15 22 3 36 7 41 71 78 52 30 73 37 85 29 9 -5
141 -81 295 -167 244 -138 281 -157 300 -147 11 7 14 10 5 7 -9 -2 -16 2 -16
10 0 7 5 10 11 7 6 -3 1 3 -10 15 -33 32 -61 83 -68 126 -7 38 -7 38 21 31 28
-7 43 -21 43 -42 0 -6 3 -19 7 -29 5 -13 3 -16 -10 -11 -9 3 -17 2 -17 -3 0
-19 28 -10 43 14 12 18 13 26 4 35 -9 10 -9 12 2 9 8 -2 17 6 19 17 9 45 42
56 42 14 0 -19 25 -37 36 -26 3 3 1 22 -6 41 -9 29 -17 36 -37 36 -15 0 -36
-8 -47 -17 -16 -14 -18 -14 -8 -2 9 13 12 123 10 482 l-3 465 -405 -245z m360
23 l0 -124 -67 -43 c-38 -24 -72 -46 -78 -48 -10 -4 -289 -176 -468 -288 -49
-31 -94 -52 -102 -49 -12 4 -15 29 -15 125 0 132 1 135 69 172 41 22 101 59
420 252 123 75 228 134 233 131 4 -3 8 -61 8 -128z"/>
<path d="M3952 4458 l-212 -133 0 -77 c0 -56 4 -78 13 -78 6 0 104 58 217 129
l205 128 3 73 c2 40 -1 77 -6 82 -5 5 -101 -50 -220 -124z"/>
<path d="M3107 4706 c-48 -29 -61 -43 -22 -23 31 16 74 46 65 46 -3 0 -22 -10
-43 -23z"/>
<path d="M5371 4579 c-135 -82 -248 -149 -252 -149 -4 0 -6 -15 -3 -32 3 -18
6 -96 8 -173 1 -93 8 -163 20 -210 27 -108 31 -115 65 -115 16 0 31 -5 33 -12
3 -8 39 -13 109 -16 57 -2 109 -9 116 -14 7 -5 39 -12 73 -15 54 -5 60 -4 62
13 1 11 4 -8 8 -41 4 -33 7 159 8 428 1 268 1 487 0 486 -2 0 -113 -67 -247
-150z m-221 -153 c0 -2 -7 -7 -16 -10 -8 -3 -12 -2 -9 4 6 10 25 14 25 6z"/>
<path d="M4894 4684 c-18 -14 -18 -15 4 -4 12 6 22 13 22 15 0 8 -5 6 -26 -11z"/>
<path d="M5150 4656 c0 -3 9 -10 20 -16 11 -6 20 -8 20 -6 0 3 -9 10 -20 16
-11 6 -20 8 -20 6z"/>
<path d="M2977 4631 c-40 -26 -47 -36 -12 -18 42 23 62 37 50 36 -5 0 -22 -8
-38 -18z"/>
<path d="M5205 4597 l-20 -20 25 13 c32 16 33 17 23 23 -4 2 -17 -5 -28 -16z"/>
<path d="M2261 4459 c-112 -66 -215 -128 -228 -139 -28 -22 -15 -27 18 -7 31
18 46 -10 55 -101 3 -43 11 -88 16 -101 6 -17 5 -27 -4 -32 -17 -11 16 -24 34
-13 7 4 10 4 6 -1 -4 -4 -18 -13 -30 -19 -19 -9 -24 -21 -26 -65 -2 -30 0 -58
5 -62 4 -4 6 16 5 45 l-4 54 65 36 c35 20 67 36 70 36 4 0 7 -22 7 -49 l0 -49
78 -42 c42 -23 84 -51 92 -62 10 -12 22 -17 33 -12 16 6 17 35 17 355 0 192
-1 349 -2 348 -2 0 -95 -54 -207 -120z"/>
<path d="M5154 4564 c-18 -14 -18 -15 4 -4 12 6 22 13 22 15 0 8 -5 6 -26 -11z"/>
<path d="M5073 4519 c-29 -17 -53 -33 -53 -36 0 -5 89 44 105 58 16 16 1 9
-52 -22z"/>
<path d="M3564 4526 c-5 -6 -21 -19 -35 -29 -15 -11 -17 -14 -4 -8 30 14 61
39 55 44 -3 3 -10 0 -16 -7z"/>
<path d="M700 4470 c-9 -6 -10 -10 -3 -10 6 0 15 5 18 10 8 12 4 12 -15 0z"/>
<path d="M3443 4450 c-29 -17 -53 -33 -53 -36 0 -5 88 43 105 58 17 15 0 8
-52 -22z"/>
<path d="M733 4464 c4 -4 -5 -16 -20 -26 -31 -20 -48 -23 -38 -8 4 6 -1 7 -11
3 -15 -5 -15 -7 0 -15 10 -5 23 -5 35 2 24 12 34 13 27 1 -9 -13 32 -1 44 14
7 9 3 15 -18 24 -15 7 -24 9 -19 5z m22 -24 c-3 -5 -11 -10 -16 -10 -6 0 -7 5
-4 10 3 6 11 10 16 10 6 0 7 -4 4 -10z"/>
<path d="M778 4427 c-9 -7 -18 -34 -20 -64 -5 -51 -4 -53 21 -54 21 -1 22 -2
6 -6 -34 -8 -38 -20 -9 -27 20 -5 24 -10 15 -16 -8 -4 -28 -2 -47 6 -41 17
-39 17 -56 1 -7 -7 -71 -48 -143 -91 -72 -43 -132 -81 -135 -83 -8 -7 53 -53
70 -53 8 0 62 27 120 60 58 33 109 60 115 60 10 0 213 -115 227 -129 5 -4 -24
-24 -62 -45 -72 -39 -87 -51 -47 -42 12 3 16 3 10 0 -7 -3 -13 -14 -13 -25 0
-10 -4 -19 -9 -19 -5 0 -11 -13 -13 -30 -4 -25 -2 -29 16 -26 12 2 15 1 8 -1
-11 -4 -10 -27 4 -71 2 -8 -11 -19 -30 -27 -19 -8 -37 -19 -40 -24 -16 -25
-65 -22 -118 7 -65 35 -375 209 -518 290 -98 56 -131 64 -117 29 3 -7 40 -34
84 -59 43 -24 196 -113 339 -196 144 -84 268 -152 275 -153 8 0 5 -4 -6 -9
-11 -5 -15 -9 -10 -9 7 -1 9 -16 7 -38 -4 -28 12 -170 23 -213 1 -3 5 -27 9
-55 24 -163 39 -225 52 -225 8 0 14 -4 14 -10 0 -5 7 -10 15 -10 8 0 15 -4 15
-10 0 -5 11 -10 25 -10 14 0 25 -3 25 -8 0 -9 74 -42 95 -42 8 0 18 -6 22 -14
4 -8 21 -16 37 -19 16 -2 35 -12 42 -22 7 -9 24 -19 38 -20 13 -2 44 -15 68
-29 25 -14 57 -26 71 -26 15 0 27 -6 28 -12 1 -7 5 -2 9 12 l8 25 2 -25 2 -25
7 25 c6 17 10 -5 16 -72 4 -54 9 -98 12 -98 10 0 69 34 75 43 3 6 7 161 8 344
1 328 4 379 21 351 7 -10 9 -8 10 7 2 43 17 -53 24 -156 7 -100 17 -135 28
-91 3 14 6 13 15 -8 l11 -25 2 30 c2 27 3 26 9 -10 l7 -40 2 50 c1 28 4 61 8
74 6 23 7 23 14 5 4 -10 8 43 10 119 1 75 3 142 4 147 1 6 3 36 4 68 1 36 4
52 10 43 7 -11 9 -11 14 0 3 8 7 -11 8 -41 3 -54 3 -53 9 20 6 66 7 58 10 -70
4 -209 8 -290 13 -293 2 -1 27 12 55 30 l51 31 1 229 0 228 -55 30 c-48 25
-57 28 -65 15 -5 -8 -10 -10 -10 -5 0 6 -23 23 -50 38 -28 16 -48 33 -44 38 3
5 2 9 -3 8 -25 -4 -43 3 -43 19 0 14 -2 14 -9 3 -8 -12 -12 -12 -26 2 -9 10
-20 17 -25 17 -5 0 -10 30 -12 67 -3 62 -5 67 -33 83 -16 10 -131 74 -253 144
-123 69 -229 123 -235 119 -7 -3 -9 -2 -4 2 11 13 -69 54 -95 49 -20 -4 -20
-3 -4 4 12 5 15 11 9 15 -5 3 -17 1 -25 -6z m49 -73 c-3 -3 -12 -4 -19 -1 -8
3 -5 6 6 6 11 1 17 -2 13 -5z m-22 -24 c-3 -5 -12 -10 -18 -10 -7 0 -6 4 3 10
19 12 23 12 15 0z m104 -353 c-2 -1 -11 -8 -21 -15 -12 -10 -18 -10 -24 -1 -4
7 -3 9 4 5 6 -3 13 -2 17 4 3 5 11 10 17 10 6 0 9 -1 7 -3z m-9 -37 c-8 -5
-19 -10 -25 -10 -5 0 -3 5 5 10 8 5 20 10 25 10 6 0 3 -5 -5 -10z m-30 -120
c0 -5 -7 -10 -16 -10 -8 0 -12 5 -9 10 3 6 10 10 16 10 5 0 9 -4 9 -10z m-8
-42 c-6 -6 -15 -8 -19 -4 -4 4 -1 11 7 16 19 12 27 3 12 -12z"/>
<path d="M2540 4255 c0 -112 -4 -186 -10 -190 -12 -7 -14 -36 -2 -33 19 5 52
-15 52 -33 0 -12 7 -19 20 -19 11 0 29 -15 42 -33 15 -21 30 -31 41 -29 27 6
33 -27 8 -44 -27 -19 -61 -55 -61 -65 0 -4 20 -19 44 -33 l45 -26 60 32 c33
18 61 36 61 40 0 5 -20 17 -45 29 -25 12 -47 25 -50 28 -2 4 81 56 185 115
105 60 190 111 190 115 0 4 -19 17 -42 29 -24 12 -65 34 -93 50 -27 16 -139
79 -247 140 l-198 111 0 -184z"/>
<path d="M3334 4384 c-18 -14 -18 -15 4 -4 12 6 22 13 22 15 0 8 -5 6 -26 -11z"/>
<path d="M3284 4354 c-18 -14 -18 -15 4 -4 12 6 22 13 22 15 0 8 -5 6 -26 -11z"/>
<path d="M1649 4278 c-4 -54 -4 -148 -1 -148 2 0 28 15 58 33 70 41 71 68 4
108 -56 34 -60 34 -61 7z"/>
<path d="M4607 4293 c-4 -3 -7 -71 -7 -150 0 -139 -1 -143 -19 -133 -11 5 -22
6 -25 1 -6 -9 82 -65 251 -160 80 -45 95 -51 114 -41 14 8 19 8 15 1 -4 -6 9
-18 31 -28 21 -9 45 -20 55 -24 15 -7 16 7 17 144 l1 152 -72 43 c-40 23 -82
48 -93 55 -11 6 -37 22 -57 34 -38 24 -199 113 -203 113 -1 0 -5 -3 -8 -7z"/>
<path d="M1910 4257 l-55 -33 0 -234 0 -234 74 -44 c40 -23 76 -40 80 -37 8 8
-29 36 -39 30 -8 -5 -23 33 -21 49 1 5 -5 6 -14 3 -13 -6 -13 -3 1 19 14 21
18 66 23 270 3 134 6 244 6 244 0 0 -25 -15 -55 -33z"/>
<path d="M1701 4137 l-54 -32 2 -114 c1 -63 4 -118 7 -122 6 -11 96 -60 101
-56 2 2 2 83 1 180 l-3 177 -54 -33z"/>
<path d="M2520 4005 c0 -8 4 -15 10 -15 5 0 7 7 4 15 -4 8 -8 15 -10 15 -2 0
-4 -7 -4 -15z"/>
<path d="M1487 3969 c7 -7 15 -10 18 -7 3 3 -2 9 -12 12 -14 6 -15 5 -6 -5z"/>
<path d="M4556 3955 c3 -8 14 -17 24 -20 27 -9 29 -21 31 -185 1 -136 3 -153
21 -173 18 -20 29 -23 78 -21 31 2 61 4 66 5 5 1 25 1 46 0 31 -1 35 -4 31
-20 -3 -13 -11 -18 -21 -14 -10 4 -14 3 -10 -2 10 -10 -9 -26 -65 -54 -29 -15
-46 -29 -43 -37 3 -8 0 -11 -10 -7 -8 3 -14 -1 -15 -8 0 -8 -4 -3 -10 9 -5 13
-7 28 -4 32 3 5 -6 17 -20 26 -19 13 -24 22 -20 44 5 26 3 27 -37 26 -24 -1
-43 -6 -46 -14 -2 -7 2 -12 9 -11 19 3 49 -11 49 -23 0 -6 11 -19 25 -30 14
-11 25 -26 25 -34 0 -13 -3 -13 -22 0 -12 9 -25 16 -28 16 -3 0 -19 -38 -35
-85 -16 -47 -34 -85 -38 -85 -12 0 2 119 18 152 7 15 10 29 7 32 -3 3 -28 6
-56 6 -48 0 -52 3 -71 35 -14 24 -24 32 -33 26 -11 -6 -9 -17 9 -53 19 -41 26
-46 61 -51 22 -3 41 -7 44 -9 9 -10 -20 -85 -41 -105 -14 -13 -21 -30 -18 -40
4 -17 139 -103 161 -103 23 0 40 32 47 88 3 32 10 63 13 68 9 12 97 64 110 64
10 0 118 62 138 79 6 5 34 21 61 34 28 15 50 33 50 41 0 9 -3 16 -6 16 -3 0
-44 -23 -89 -50 -46 -28 -103 -61 -125 -74 -88 -49 -122 -71 -125 -78 -4 -10
-22 0 -22 12 0 4 37 30 83 56 103 59 281 165 286 170 2 2 -2 11 -10 20 -12 14
-14 14 -21 -6 -4 -12 -13 -18 -18 -15 -14 9 -42 -14 -33 -28 3 -6 1 -7 -5 -3
-6 4 -21 2 -32 -4 -14 -7 -26 -8 -38 -1 -14 9 -13 10 8 8 13 -1 25 3 25 10 0
6 3 15 8 19 4 4 7 18 7 31 0 22 13 28 48 24 13 -2 16 9 4 24 -4 6 -31 26 -59
44 -58 36 -70 50 -23 26 17 -9 30 -13 30 -10 0 10 -79 57 -87 52 -5 -3 -15 -1
-23 5 -12 8 -12 9 3 4 29 -9 19 3 -18 21 -19 10 -70 39 -112 64 -43 25 -88 49
-100 53 -13 4 -23 12 -23 17 0 5 -4 9 -10 9 -5 0 -7 -7 -4 -15z m104 -665 c0
-5 -5 -10 -11 -10 -5 0 -7 5 -4 10 3 6 8 10 11 10 2 0 4 -4 4 -10z m-70 -38
c0 -15 -22 -30 -36 -25 -11 4 -12 9 -3 19 12 15 39 19 39 6z"/>
<path d="M764 3921 c-18 -11 -42 -21 -55 -24 l-24 -4 25 -2 c23 -1 90 32 90
44 0 7 -2 7 -36 -14z"/>
<path d="M3058 3904 c-36 -23 -38 -27 -38 -74 0 -56 7 -60 56 -29 35 21 40 40
25 100 l-6 26 -37 -23z"/>
<path d="M2276 3884 c-34 -20 -66 -32 -75 -29 -13 5 -14 4 -3 -7 10 -10 23 -6
68 17 30 17 60 36 66 43 14 16 12 15 -56 -24z"/>
<path d="M2610 3900 c0 -5 5 -10 10 -10 6 0 10 5 10 10 0 6 -4 10 -10 10 -5 0
-10 -4 -10 -10z"/>
<path d="M785 3890 c3 -5 8 -10 11 -10 2 0 4 5 4 10 0 6 -5 10 -11 10 -5 0 -7
-4 -4 -10z"/>
<path d="M2152 3874 c10 -10 20 -15 24 -12 3 4 -5 12 -18 18 -22 12 -22 12 -6
-6z"/>
<path d="M718 3873 c7 -3 16 -2 19 1 4 3 -2 6 -13 5 -11 0 -14 -3 -6 -6z"/>
<path d="M768 3863 c7 -3 16 -2 19 1 4 3 -2 6 -13 5 -11 0 -14 -3 -6 -6z"/>
<path d="M2060 3799 c0 -32 2 -59 5 -59 3 0 18 12 33 28 15 15 40 36 57 46
l30 20 -25 6 c-14 4 -42 9 -62 13 l-38 6 0 -60z"/>
<path d="M2347 3836 c-58 -35 -58 -41 1 -12 28 14 52 29 52 31 0 10 -16 4 -53
-19z"/>
<path d="M3150 3830 c-6 -11 -9 -24 -6 -28 2 -4 -7 -13 -22 -20 -61 -28 -64
-34 -66 -136 0 -53 3 -96 8 -96 4 0 42 19 82 42 l74 42 0 87 c0 86 -1 88 -29
109 l-30 21 -11 -21z m33 -17 c-7 -2 -19 -2 -25 0 -7 3 -2 5 12 5 14 0 19 -2
13 -5z"/>
<path d="M160 3486 c1 -313 7 -410 23 -349 3 13 5 11 7 -7 2 -21 4 -20 10 10
l7 35 2 -33 c0 -18 5 -31 11 -27 5 3 9 143 10 349 l0 343 -27 13 c-16 8 -31
16 -36 18 -4 2 -7 -156 -7 -352z"/>
<path d="M2400 3820 c0 -8 -30 -34 -67 -57 l-68 -42 -3 29 c-2 20 -7 27 -17
23 -8 -3 -30 5 -49 16 l-34 21 -7 -27 c-3 -15 -11 -31 -17 -34 -21 -13 4 -29
46 -29 52 0 87 -28 61 -50 -9 -8 -15 -29 -15 -56 0 -55 -17 -65 -47 -28 l-23
29 0 -52 c0 -49 -2 -53 -24 -53 -12 0 -37 5 -55 11 -18 6 -35 9 -38 5 -7 -7
-4 -366 3 -378 6 -10 64 19 64 32 0 6 -7 10 -16 10 -14 0 -16 8 -10 46 3 26 6
76 6 112 0 38 4 62 9 56 15 -16 31 -100 31 -161 0 -65 16 -133 31 -133 17 0
69 30 69 40 0 6 -11 10 -24 10 -25 0 -25 0 -28 123 -3 116 2 152 16 128 5 -7
15 -7 32 1 19 9 24 18 21 35 -5 29 42 68 72 58 14 -4 23 0 31 15 6 11 18 20
26 20 10 0 14 8 12 23 -3 20 1 22 35 21 37 -1 38 1 35 30 -2 23 -8 31 -22 31
-40 0 -32 69 9 79 23 6 25 11 25 60 l0 55 -35 -2 c-24 -1 -35 -7 -35 -17z"/>
<path d="M802 3785 c1 -19 4 -32 7 -30 8 8 6 65 -2 65 -4 0 -7 -16 -5 -35z"/>
<path d="M2513 3657 c4 -104 2 -155 -6 -168 -15 -24 -4 -33 22 -17 19 11 21
22 20 103 -2 127 0 145 11 145 6 0 10 -17 10 -37 0 -21 8 -76 17 -122 l18 -84
-23 -15 c-12 -8 -22 -18 -22 -23 0 -14 33 -10 54 6 17 13 18 23 12 97 -11 120
-11 139 -2 179 7 32 5 37 -14 42 -16 4 -21 11 -18 24 4 15 -2 18 -40 19 l-45
1 6 -150z"/>
<path d="M4910 3796 c0 -3 14 -12 30 -21 17 -9 30 -13 30 -11 0 3 -13 12 -30
21 -16 9 -30 13 -30 11z"/>
<path d="M700 3754 c-17 -9 -20 -14 -9 -14 9 0 22 7 29 15 15 18 13 18 -20 -1z"/>
<path d="M748 3753 c7 -3 16 -2 19 1 4 3 -2 6 -13 5 -11 0 -14 -3 -6 -6z"/>
<path d="M2799 3726 l-36 -25 -22 20 -22 21 2 -56 c1 -31 5 -56 8 -56 3 0 30
14 59 30 44 26 52 35 52 60 0 17 -1 30 -3 30 -1 0 -19 -11 -38 -24z"/>
<path d="M1837 3729 c7 -9 10 -19 6 -22 -3 -4 -1 -7 5 -7 7 0 12 -12 13 -27 0
-23 2 -24 8 -9 7 17 8 17 24 2 9 -10 29 -20 44 -22 15 -3 33 -10 40 -16 10 -8
13 -7 13 5 0 18 -9 25 -95 73 -38 21 -64 31 -58 23z"/>
<path d="M377 3703 c-4 -3 -6 -85 -6 -182 1 -185 14 -464 18 -396 2 28 5 35
10 22 4 -10 11 -18 16 -17 5 1 12 -7 16 -17 8 -19 13 121 13 396 l1 165 -31
18 c-17 10 -34 15 -37 11z"/>
<path d="M4291 3627 c2 -48 3 -87 1 -87 -2 0 -12 4 -22 10 -16 9 -18 3 -23
-58 -4 -58 -2 -69 15 -84 22 -20 78 -25 78 -7 0 5 4 7 10 4 13 -8 22 33 18 91
-3 43 -6 49 -25 49 -32 1 -34 5 -40 87 -8 103 -16 100 -12 -5z"/>
<path d="M5010 3664 c0 -8 5 -12 10 -9 6 3 10 10 10 16 0 5 -4 9 -10 9 -5 0
-10 -7 -10 -16z"/>
<path d="M4970 3629 c0 -5 5 -7 10 -4 6 3 10 8 10 11 0 2 -4 4 -10 4 -5 0 -10
-5 -10 -11z"/>
<path d="M2025 3610 c-3 -5 1 -10 9 -10 9 0 16 5 16 10 0 6 -4 10 -9 10 -6 0
-13 -4 -16 -10z"/>
<path d="M4615 3570 c3 -5 8 -10 11 -10 2 0 4 5 4 10 0 6 -5 10 -11 10 -5 0
-7 -4 -4 -10z"/>
<path d="M2878 3538 c11 -14 7 -19 -32 -38 l-44 -23 -4 -68 c-2 -38 -2 -69 0
-69 3 0 93 50 101 57 2 1 6 32 8 67 5 59 3 65 -19 77 -20 11 -22 11 -10 -3z"/>
<path d="M4643 3524 c0 -16 13 -19 21 -5 3 5 0 11 -7 14 -8 3 -14 -1 -14 -9z"/>
<path d="M4683 3508 c-2 -18 0 -20 7 -8 12 18 13 30 2 30 -4 0 -9 -10 -9 -22z"/>
<path d="M2328 3459 c-16 -9 -27 -69 -12 -69 23 0 44 24 44 50 0 32 -5 35 -32
19z"/>
<path d="M2349 3370 c-37 -20 -59 -60 -33 -60 8 0 14 5 14 10 0 6 11 10 24 10
25 0 92 48 81 58 -3 3 -12 -3 -20 -14 -13 -17 -14 -17 -15 -1 0 21 -6 21 -51
-3z"/>
<path d="M5449 3367 c-19 -12 -56 -35 -83 -51 -44 -26 -48 -30 -42 -58 3 -17
6 -41 6 -53 0 -17 6 -23 25 -24 14 -1 31 -2 38 -3 7 -1 24 2 39 5 20 5 28 3
31 -10 4 -17 5 -17 6 0 2 25 19 21 24 -5 2 -13 5 15 6 62 1 47 4 102 7 123 7
45 -7 48 -57 14z"/>
<path d="M3870 3182 l0 -167 148 -84 c81 -47 202 -118 270 -158 68 -40 126
-73 129 -73 17 0 233 133 233 143 5 176 4 307 -3 307 -5 0 -55 -27 -111 -60
-57 -33 -107 -60 -111 -60 -8 0 -209 113 -275 155 -19 12 -90 54 -157 93
l-123 71 0 -167z"/>
<path d="M2456 3332 c-3 -6 0 -13 6 -16 7 -3 1 -4 -13 -1 -17 3 -44 -4 -74
-20 -45 -24 -48 -25 -61 -8 -12 16 -13 16 -12 -9 3 -30 9 -33 39 -18 18 10 19
7 19 -37 0 -26 5 -79 10 -117 10 -65 9 -71 -12 -93 -27 -29 -21 -36 19 -21 27
10 31 17 37 62 3 28 3 69 -1 91 -3 22 -2 36 3 32 9 -9 42 -148 51 -215 4 -33
9 -42 22 -40 18 4 18 9 5 243 -6 121 -22 192 -38 167z"/>
<path d="M3190 3242 c-41 -25 -131 -77 -200 -117 -549 -315 -582 -336 -496
-308 26 9 43 20 39 25 -3 6 0 8 8 6 8 -3 21 1 30 9 15 13 17 -16 24 -359 5
-205 11 -362 15 -348 6 23 7 24 17 6 9 -16 11 -16 16 -2 4 9 17 16 31 16 13 0
27 8 32 18 6 13 9 9 14 -18 3 -19 9 66 13 189 5 164 10 227 19 233 19 12 26
10 31 -9 3 -11 5 -8 6 9 1 20 5 26 17 21 9 -3 23 3 35 16 11 11 24 21 29 21 6
0 10 6 10 14 0 9 7 12 20 9 11 -3 17 -9 14 -14 -3 -5 2 -6 11 -2 13 5 14 7 3
14 -10 7 -10 11 -1 17 8 5 -12 23 -60 52 -119 73 -227 144 -227 150 0 3 12 12
28 21 15 9 151 87 302 174 284 164 305 177 299 192 -2 5 -38 -11 -79 -35z
m-273 -548 c-3 -3 -12 -4 -19 -1 -8 3 -5 6 6 6 11 1 17 -2 13 -5z"/>
<path d="M4460 3150 c-8 -5 -10 -10 -5 -10 6 0 17 5 25 10 8 5 11 10 5 10 -5
0 -17 -5 -25 -10z"/>
<path d="M1696 3125 c10 -8 23 -15 28 -15 6 0 1 7 -10 15 -10 8 -23 15 -28 15
-6 0 -1 -7 10 -15z"/>
<path d="M5030 2931 c-516 -290 -576 -321 -621 -321 -24 0 -51 -5 -59 -11 -12
-9 -11 -10 8 -6 12 3 22 1 22 -4 0 -20 62 -7 127 26 183 96 592 331 602 347 6
10 10 18 9 18 -2 -1 -41 -22 -88 -49z"/>
<path d="M1495 2735 c11 -9 19 -21 17 -26 -1 -6 2 -8 8 -4 13 8 4 22 -23 35
-22 11 -22 11 -2 -5z"/>
<path d="M2950 2680 c0 -5 5 -10 11 -10 5 0 7 5 4 10 -3 6 -8 10 -11 10 -2 0
-4 -4 -4 -10z"/>
<path d="M1445 2671 c-3 -6 5 -15 17 -21 21 -10 21 -10 6 3 -10 8 -15 17 -11
20 3 4 4 7 0 7 -3 0 -8 -4 -12 -9z"/>
<path d="M1528 2644 c-16 -8 -28 -12 -28 -9 0 2 -8 -2 -17 -10 -10 -8 -27 -21
-38 -29 -20 -15 -20 -15 -1 -29 19 -14 18 -16 -22 -41 -23 -14 -42 -29 -42
-31 0 -6 47 22 71 42 13 11 22 11 43 2 15 -7 25 -18 22 -24 -6 -17 62 -3 101
20 28 16 34 17 50 4 16 -13 17 -12 5 3 -9 11 -10 18 -2 23 22 14 7 34 -49 64
-68 36 -58 34 -93 15z"/>
<path d="M1740 2636 c0 -3 9 -10 20 -16 11 -6 20 -8 20 -6 0 3 -9 10 -20 16
-11 6 -20 8 -20 6z"/>
<path d="M1214 2574 c-18 -14 -18 -15 2 -5 17 8 30 5 66 -18 56 -36 88 -53 88
-48 0 3 -104 69 -131 83 -3 2 -15 -3 -25 -12z"/>
<path d="M1170 2218 c0 -348 6 -478 21 -478 5 0 9 8 9 18 0 14 2 15 10 2 8
-12 10 -12 16 3 10 26 21 20 28 -15 3 -18 11 -40 16 -48 9 -13 11 -13 20 0 9
13 13 12 29 -7 22 -27 56 -30 65 -7 3 9 6 36 6 60 0 30 5 46 15 50 10 4 15 21
16 53 1 25 3 38 6 28 5 -18 5 -18 19 1 7 11 29 27 49 36 27 13 35 23 36 44 l1
27 8 -30 c7 -28 8 -29 10 -5 1 16 4 20 7 10 4 -10 10 -4 19 20 12 33 13 31 13
-46 1 -45 4 -115 7 -157 l7 -77 38 0 c48 0 69 -8 69 -27 0 -10 6 -12 23 -7 24
7 144 70 165 86 8 8 12 51 12 154 0 85 4 144 10 144 5 0 11 -28 13 -62 2 -35
4 75 5 245 1 169 0 307 -3 307 -3 0 -83 -45 -179 -100 -95 -55 -183 -100 -196
-100 -22 0 -114 50 -250 135 -36 23 -82 51 -102 64 l-38 23 0 -344z"/>
<path d="M1473 2488 c-30 -14 -29 -22 5 -37 25 -10 26 -10 8 4 -20 15 -20 15
0 30 22 17 18 18 -13 3z"/>
<path d="M4064 2421 c10 -11 25 -17 34 -14 9 4 13 2 8 -5 -7 -11 31 -28 41
-18 4 3 -1 6 -11 6 -9 0 -15 4 -12 8 3 5 -11 16 -30 25 -45 22 -51 21 -30 -2z"/>
<path d="M1574 2396 c11 -9 24 -16 30 -16 12 0 7 5 -24 19 -24 11 -24 11 -6
-3z"/>
<path d="M4026 2403 c-8 -9 56 -48 73 -44 7 1 10 -2 7 -7 -3 -6 1 -13 10 -16
26 -10 28 -7 9 14 -10 12 -25 18 -32 16 -7 -3 -13 -2 -13 3 0 12 -46 41 -54
34z"/>
<path d="M2923 1927 c-62 -12 -59 5 -42 -222 9 -119 15 -154 30 -169 11 -12
24 -16 35 -12 15 6 15 9 -6 31 -22 23 -23 29 -16 122 4 54 10 114 15 133 l7
35 12 -35 c18 -56 42 -169 42 -198 0 -20 8 -33 29 -45 37 -22 52 -5 23 26 -15
16 -22 41 -27 97 -7 93 -35 251 -44 248 -3 0 -30 -6 -58 -11z"/>
<path d="M3581 1886 c2 -2 15 -9 29 -15 24 -11 24 -11 6 3 -16 13 -49 24 -35
12z"/>
<path d="M3636 1816 c-35 -19 -67 -31 -70 -28 -3 3 -6 -2 -6 -11 0 -9 7 -17
14 -17 20 0 136 69 136 80 0 14 -2 14 -74 -24z"/>
<path d="M3530 1680 c0 -18 32 -60 40 -55 5 3 12 -4 15 -16 8 -23 19 -16 29
18 5 15 0 28 -15 42 -24 22 -69 29 -69 11z"/>
<path d="M3610 1575 c-10 -12 -24 -14 -61 -9 -42 6 -49 4 -49 -10 0 -9 7 -19
15 -22 12 -5 12 -9 -3 -30 -20 -28 -30 -29 -54 -7 -14 13 -21 14 -30 5 -9 -9
-5 -19 15 -40 32 -33 34 -46 8 -37 -23 7 -36 -9 -50 -59 -12 -46 -8 -55 16
-34 30 26 46 26 101 1 l54 -23 54 30 c58 34 57 32 55 135 -2 94 -9 115 -36
115 -12 0 -28 -7 -35 -15z m-90 -155 c0 -5 -4 -10 -10 -10 -5 0 -10 5 -10 10
0 6 5 10 10 10 6 0 10 -4 10 -10z"/>
<path d="M3750 1546 c0 -17 90 -74 108 -69 23 8 12 21 -42 52 -61 35 -66 36
-66 17z"/>
<path d="M3920 1439 c-63 -38 -121 -68 -128 -69 -7 0 -27 7 -43 16 -42 21 -47
11 -8 -14 l32 -20 -44 -22 c-24 -13 -86 -47 -137 -77 -91 -53 -93 -54 -118
-38 -34 22 -54 13 -54 -25 l0 -30 -37 21 c-21 12 -61 34 -90 50 -59 34 -60 33
-55 -60 l4 -56 124 -72 125 -73 127 74 c70 40 172 99 227 131 55 32 119 69
143 83 24 14 46 30 48 36 3 7 3 57 2 112 l-3 100 -115 -67z"/>
<path d="M4450 1377 c-8 -8 -206 -129 -440 -270 -234 -140 -458 -276 -499
-301 -91 -56 -160 -74 -225 -57 -26 6 -117 52 -202 101 -86 50 -160 87 -166
84 -6 -4 -8 -3 -5 3 7 10 -98 75 -107 65 -3 -3 -6 -10 -6 -16 0 -6 5 -4 10 4
8 13 10 13 10 -1 0 -10 7 -16 18 -15 9 0 16 -4 15 -10 -1 -7 6 -10 20 -7 14 3
18 2 10 -4 -16 -11 42 -48 59 -37 7 4 8 3 4 -4 -8 -14 30 -36 46 -26 6 4 8 3
5 -3 -4 -6 43 -39 106 -76 173 -100 171 -100 248 -95 l67 4 504 303 c278 167
515 311 527 320 13 10 22 25 20 35 -4 15 -6 15 -19 3z"/>
<path d="M2695 1045 c11 -8 26 -13 34 -10 7 3 25 -2 38 -11 14 -8 27 -14 29
-12 2 3 -15 15 -38 28 -22 13 -38 18 -34 11 9 -14 1 -14 -27 0 -21 10 -21 10
-2 -6z"/>
</g>
</svg>
